<?xml version="1.0" encoding="UTF-8"?><svg xmlns="http://www.w3.org/2000/svg" xmlns:xlink="http://www.w3.org/1999/xlink" fill-opacity="1" color-rendering="auto" color-interpolation="auto" text-rendering="auto" stroke="black" stroke-linecap="square" width="4096" stroke-miterlimit="10" shape-rendering="auto" stroke-opacity="1" fill="black" stroke-dasharray="none" font-weight="normal" stroke-width="1" height="1355" font-family="'Dialog'" font-style="normal" stroke-linejoin="miter" font-size="12px" stroke-dashoffset="0" image-rendering="auto">
  <!--Generated by ySVG 2.5-->
  <defs id="genericDefs"/>
  <g>
    <defs id="defs1">
      <clipPath clipPathUnits="userSpaceOnUse" id="clipPath1">
        <path d="M0 0 L4096 0 L4096 1355 L0 1355 L0 0 Z"/>
      </clipPath>
      <clipPath clipPathUnits="userSpaceOnUse" id="clipPath2">
        <path d="M-103 131 L1109 131 L1109 531.9424 L-103 531.9424 L-103 131 Z"/>
      </clipPath>
    </defs>
    <g fill="white" text-rendering="geometricPrecision" shape-rendering="geometricPrecision" transform="scale(3.3795,3.3795) translate(103,-131)" stroke="white">
      <rect x="-103" width="1212" height="401" y="131" clip-path="url(#clipPath2)" stroke="none"/>
    </g>
    <g text-rendering="geometricPrecision" stroke-miterlimit="1.45" shape-rendering="geometricPrecision" transform="matrix(3.3795,0,0,3.3795,348.0924,-442.7195)" stroke-linecap="butt">
      <path fill="none" d="M420.6384 274 L587.5952 274 L545.856 304 L462.3776 304 Z" fill-rule="evenodd" clip-path="url(#clipPath2)"/>
      <text x="456.1168" font-size="16px" y="295.2852" clip-path="url(#clipPath2)" font-family="sans-serif" stroke="none" xml:space="preserve">选择工作模式</text>
      <path fill="none" d="M413.8484 176 L458.9826 146 L549.251 146 L594.3852 176 Z" clip-path="url(#clipPath2)" fill-rule="evenodd"/>
      <text x="448.5543" font-size="16px" y="167.2852" clip-path="url(#clipPath2)" font-family="sans-serif" stroke="none" xml:space="preserve">输入照度值LUX</text>
      <rect fill="none" x="64.8832" width="197.1168" height="30" y="338" clip-path="url(#clipPath2)"/>
      <text x="109.6603" font-size="16px" y="359.2852" clip-path="url(#clipPath2)" font-family="sans-serif" stroke="none" xml:space="preserve">选择感光度ISO</text>
      <rect fill="none" x="292" width="197.1168" height="30" y="338" clip-path="url(#clipPath2)"/>
      <text x="337.6717" font-size="16px" y="359.2852" clip-path="url(#clipPath2)" font-family="sans-serif" stroke="none" xml:space="preserve">选择光圈数F值</text>
      <rect fill="none" x="519.1168" width="197.1168" height="30" y="338" clip-path="url(#clipPath2)"/>
      <text x="561.6752" font-size="16px" y="359.2852" clip-path="url(#clipPath2)" font-family="sans-serif" stroke="none" xml:space="preserve">选择快门值档位</text>
      <rect fill="none" x="746.2336" width="197.1168" height="30" y="338" clip-path="url(#clipPath2)"/>
      <text x="780.792" font-size="16px" y="359.2852" clip-path="url(#clipPath2)" font-family="sans-serif" stroke="none" xml:space="preserve">手动输入曝光时间</text>
      <ellipse rx="132.6488" fill="none" ry="21.5" clip-path="url(#clipPath2)" cx="504.1168" cy="495.5"/>
      <text x="407.6676" font-size="16px" y="501.7852" clip-path="url(#clipPath2)" font-family="sans-serif" stroke="none" xml:space="preserve">生成CSV表格文件输出保存</text>
      <rect x="-87.1168" y="406" clip-path="url(#clipPath2)" fill="none" width="272.1168" rx="4" ry="4" height="30"/>
      <text x="-67.9451" font-size="16px" y="427.2852" clip-path="url(#clipPath2)" font-family="sans-serif" stroke="none" xml:space="preserve">生成各档光圈F值和对应快门速度</text>
      <rect x="217" y="406" clip-path="url(#clipPath2)" fill="none" width="272.1168" rx="4" ry="4" height="30"/>
      <text x="227.2771" font-size="16px" y="427.2852" clip-path="url(#clipPath2)" font-family="sans-serif" stroke="none" xml:space="preserve">生成各档感光度ISO和对应快门速度</text>
      <rect x="519.1168" y="406" clip-path="url(#clipPath2)" fill="none" width="272.1168" rx="4" ry="4" height="30"/>
      <text x="532.5072" font-size="16px" y="427.2852" clip-path="url(#clipPath2)" font-family="sans-serif" stroke="none" xml:space="preserve">生成各档感光度ISO和对应光圈F值</text>
      <rect x="821.2336" y="406" clip-path="url(#clipPath2)" fill="none" width="272.1168" rx="4" ry="4" height="30"/>
      <text x="834.624" font-size="16px" y="427.2852" clip-path="url(#clipPath2)" font-family="sans-serif" stroke="none" xml:space="preserve">生成各档感光度ISO和对应光圈F值</text>
      <path fill="none" d="M269.9416 225 L289.6533 210 L447.3467 210 L467.0584 225 L447.3467 240 L289.6533 240 Z" clip-path="url(#clipPath2)" fill-rule="evenodd"/>
      <text x="304.5" font-size="16px" y="231.2852" clip-path="url(#clipPath2)" font-family="sans-serif" stroke="none" xml:space="preserve">输入电子伏调整值</text>
      <path fill="none" d="M541.1752 225 L560.8869 210 L718.5803 210 L738.292 225 L718.5803 240 L560.8869 240 Z" clip-path="url(#clipPath2)" fill-rule="evenodd"/>
      <text x="572.1789" font-size="16px" y="231.2852" clip-path="url(#clipPath2)" font-family="sans-serif" stroke="none" xml:space="preserve">输入减光镜ND档位</text>
      <path fill="none" d="M441.5294 289 L163.4416 289 L163.4416 330" clip-path="url(#clipPath2)"/>
      <path d="M163.4416 338 L168.4416 326 L163.4416 329 L158.4416 326 Z" clip-path="url(#clipPath2)" stroke="none"/>
      <path fill="none" d="M477.5293 303.9844 L424.143 334.0721" clip-path="url(#clipPath2)"/>
      <path d="M417.1736 338 L430.0826 336.4641 L425.0142 333.5812 L425.1728 327.7524 Z" clip-path="url(#clipPath2)" stroke="none"/>
      <path fill="none" d="M530.7043 303.9844 L584.0906 334.0721" clip-path="url(#clipPath2)"/>
      <path d="M591.0599 338 L583.0608 327.7524 L583.2194 333.5812 L578.151 336.4641 Z" clip-path="url(#clipPath2)" stroke="none"/>
      <path fill="none" d="M566.7042 289 L844.792 289 L844.792 330" clip-path="url(#clipPath2)"/>
      <path d="M844.792 338 L849.792 326 L844.792 329 L839.792 326 Z" clip-path="url(#clipPath2)" stroke="none"/>
      <path fill="none" d="M163.4416 368 L163.4416 397.9669" clip-path="url(#clipPath2)"/>
      <path d="M163.4416 405.9669 L168.4416 393.9669 L163.4416 396.9669 L158.4416 393.9669 Z" clip-path="url(#clipPath2)" stroke="none"/>
      <path fill="none" d="M48.9416 436.0237 L48.9416 495.5 L363.468 495.5" clip-path="url(#clipPath2)"/>
      <path d="M371.468 495.5 L359.468 490.5 L362.468 495.5 L359.468 500.5 Z" clip-path="url(#clipPath2)" stroke="none"/>
      <path fill="none" d="M390.5584 368 L390.5584 398.0132" clip-path="url(#clipPath2)"/>
      <path d="M390.5584 406.0132 L395.5584 394.0132 L390.5584 397.0132 L385.5584 394.0132 Z" clip-path="url(#clipPath2)" stroke="none"/>
      <path fill="none" d="M353.0584 436.0435 L353.0584 471.84 L400.8252 479.3216" clip-path="url(#clipPath2)"/>
      <path d="M408.7288 480.5595 L397.6471 473.7629 L399.8372 479.1669 L396.0997 483.6424 Z" clip-path="url(#clipPath2)" stroke="none"/>
      <path fill="none" d="M617.6752 368 L617.6752 397.981" clip-path="url(#clipPath2)"/>
      <path d="M617.6752 405.981 L622.6752 393.981 L617.6752 396.981 L612.6752 393.981 Z" clip-path="url(#clipPath2)" stroke="none"/>
      <path fill="none" d="M655.1752 435.9967 L655.1752 468.84 L601.7197 478.2743" clip-path="url(#clipPath2)"/>
      <path d="M593.8415 479.6647 L606.5279 482.503 L602.7045 478.1005 L604.7899 472.6552 Z" clip-path="url(#clipPath2)" stroke="none"/>
      <path fill="none" d="M844.792 368 L844.792 397.9982" clip-path="url(#clipPath2)"/>
      <path d="M844.792 405.9982 L849.792 393.9982 L844.792 396.9982 L839.792 393.9982 Z" clip-path="url(#clipPath2)" stroke="none"/>
      <path fill="none" d="M957.292 436.0237 L957.292 495.5 L644.7656 495.5" clip-path="url(#clipPath2)"/>
      <path d="M636.7656 495.5 L648.7656 500.5 L645.7656 495.5 L648.7656 490.5 Z" clip-path="url(#clipPath2)" stroke="none"/>
      <path fill="none" d="M472.3647 175.9844 L407.5079 206.5915" clip-path="url(#clipPath2)"/>
      <path d="M400.2731 210.0057 L413.2592 209.4061 L408.4123 206.1647 L408.9914 200.3626 Z" clip-path="url(#clipPath2)" stroke="none"/>
      <path fill="none" d="M400.2521 239.9844 L465.1089 270.5915" clip-path="url(#clipPath2)"/>
      <path d="M472.3437 274.0057 L463.6254 264.3625 L464.2045 270.1647 L459.3575 273.4061 Z" clip-path="url(#clipPath2)" stroke="none"/>
      <path fill="none" d="M535.8689 175.9844 L600.7257 206.5915" clip-path="url(#clipPath2)"/>
      <path d="M607.9605 210.0057 L599.2422 200.3626 L599.8214 206.1647 L594.9744 209.4061 Z" clip-path="url(#clipPath2)" stroke="none"/>
      <path fill="none" d="M607.9815 239.9844 L543.1247 270.5915" clip-path="url(#clipPath2)"/>
      <path d="M535.8898 274.0057 L548.876 273.4061 L544.029 270.1647 L544.6082 264.3625 Z" clip-path="url(#clipPath2)" stroke="none"/>
    </g>
  </g>
</svg>
